<svg xmlns="http://www.w3.org/2000/svg" width="383.345" height="70.241" viewBox="0 0 383.345 70.241"><defs><style>.a{fill:#29abe2;}</style></defs><g transform="translate(0 0)"><path class="a" d="M168.043,61.616a3.11,3.11,0,0,1,2.549,1.356l27.722,35.366a3.223,3.223,0,0,1,.633,1.912,3.164,3.164,0,0,1-.954,2.31,3.06,3.06,0,0,1-2.228.958,3.264,3.264,0,0,1-2.631-1.437L165.417,66.792a2.748,2.748,0,0,1-.719-1.912,3.047,3.047,0,0,1,1-2.346A3.349,3.349,0,0,1,168.043,61.616Zm0,41.816a3.413,3.413,0,0,1-2.07-.8,2.491,2.491,0,0,1-1.035-2.07,3.273,3.273,0,0,1,.719-1.993l13.063-16.49,3.422,5.262-11.549,14.813A3.029,3.029,0,0,1,168.043,103.432Zm27.641-41.816a2.992,2.992,0,0,1,2.26.877,2.793,2.793,0,0,1,.836,1.989,2.989,2.989,0,0,1-.2,1.076,3.4,3.4,0,0,1-.6.994L185,83.2l-3.345-4.859,11.468-15.292A3.247,3.247,0,0,1,195.684,61.616Z" transform="translate(-90.251 -33.841)"/><path class="a" d="M271.946,60.387a28.329,28.329,0,0,1,7.327.872,14.307,14.307,0,0,1,5.18,2.391,4.343,4.343,0,0,1,1.912,3.426,3.512,3.512,0,0,1-.678,2.07,2.26,2.26,0,0,1-1.953.954,3.218,3.218,0,0,1-1.808-.452,7.607,7.607,0,0,1-1.275-1.035,6.968,6.968,0,0,0-1.636-1.153,11.3,11.3,0,0,0-2.784-.836,19.054,19.054,0,0,0-3.666-.362,14.2,14.2,0,0,0-7.626,2.084,14.4,14.4,0,0,0-5.221,5.573,16.656,16.656,0,0,0-1.871,7.987,16.879,16.879,0,0,0,1.835,7.965,14.3,14.3,0,0,0,5.094,5.56,13.809,13.809,0,0,0,7.567,2.07,16.274,16.274,0,0,0,4.38-.479,12.507,12.507,0,0,0,2.789-1.1,9.171,9.171,0,0,0,2.192-1.6,2.667,2.667,0,0,1,2.03-.8,2.622,2.622,0,0,1,2.152.877,3.277,3.277,0,0,1,.714,2.152q0,1.514-1.989,3.105a16.694,16.694,0,0,1-5.375,2.667,25.34,25.34,0,0,1-7.684,1.076,19.623,19.623,0,0,1-10.6-2.83,19.206,19.206,0,0,1-7.029-7.734A23.667,23.667,0,0,1,251.4,81.908,22.845,22.845,0,0,1,253.987,71a19.691,19.691,0,0,1,17.959-10.609Z" transform="translate(-137.759 -33.168)"/><path class="a" d="M355.5,79.052a3.264,3.264,0,0,1-3.264,3.268,3.006,3.006,0,0,1-2.26-.958,3.2,3.2,0,0,1-.9-2.31V26.645a3.255,3.255,0,0,1,3.264-3.268,2.993,2.993,0,0,1,2.31.954,3.291,3.291,0,0,1,.877,2.314Z" transform="translate(-191.283 -12.887)"/><path class="a" d="M420.518,62.674a3.056,3.056,0,0,1,2.31.9,3.277,3.277,0,0,1,.89,2.36V87.6q0,8.046-4.52,12.467t-12.543,4.421q-7.965,0-12.467-4.421T389.667,87.6V65.937a3.2,3.2,0,0,1,.9-2.35,3.078,3.078,0,0,1,2.26-.9,3.042,3.042,0,0,1,2.31.9,3.259,3.259,0,0,1,.877,2.35V87.6q0,5.424,2.789,8.2t7.806,2.789q5.09,0,7.883-2.789t2.789-8.2V65.937a3.259,3.259,0,0,1,.877-2.35A3.042,3.042,0,0,1,420.518,62.674Z" transform="translate(-213.529 -34.419)"/><path class="a" d="M513.883,97.673a2.984,2.984,0,0,1,2.152.836,2.8,2.8,0,0,1,.877,2.111,2.834,2.834,0,0,1-.877,2.07,2.929,2.929,0,0,1-2.152.877H488.077a3.051,3.051,0,0,1-3.029-2.947,3.971,3.971,0,0,1,.2-1.356,4.819,4.819,0,0,1,.755-1.275l22.7-30.823.158.877H489.591a2.929,2.929,0,0,1-2.152-.877,2.834,2.834,0,0,1-.877-2.07,2.8,2.8,0,0,1,.877-2.111,2.983,2.983,0,0,1,2.152-.836h24.454a2.744,2.744,0,0,1,2.111.9,3.263,3.263,0,0,1,.836,2.26,8.876,8.876,0,0,1-.24,1.112,3.841,3.841,0,0,1-.637,1.2L493.574,98.048l-.556-.4Z" transform="translate(-265.797 -34.134)"/><path class="a" d="M589.493,103.394a22.205,22.205,0,0,1-11.151-2.712,19.3,19.3,0,0,1-7.445-7.449A21.882,21.882,0,0,1,568.23,82.28a23.841,23.841,0,0,1,2.744-11.825,19.509,19.509,0,0,1,7.169-7.49A18.266,18.266,0,0,1,587.5,60.38a19.074,19.074,0,0,1,7.128,1.356,18.273,18.273,0,0,1,6.039,3.982,20.028,20.028,0,0,1,4.263,6.215,20.7,20.7,0,0,1,1.673,8.136,2.943,2.943,0,0,1-1.035,2.111,3.3,3.3,0,0,1-2.233.836h-31.46l-1.433-5.5h30.678l-1.275,1.116V76.869a10.456,10.456,0,0,0-2.188-5.614,12.955,12.955,0,0,0-10.157-4.9,13.51,13.51,0,0,0-4.742.877,11.987,11.987,0,0,0-4.222,2.712,13.026,13.026,0,0,0-2.983,4.778,20.028,20.028,0,0,0-1.1,7.088,16.987,16.987,0,0,0,1.871,8.136,14.169,14.169,0,0,0,5.2,5.519,16.2,16.2,0,0,0,12.625,1.311,14.069,14.069,0,0,0,3.544-1.808,16.6,16.6,0,0,0,2.549-2.192,3.549,3.549,0,0,1,1.993-.714,2.712,2.712,0,0,1,1.989.8,2.608,2.608,0,0,1,.8,1.912,3.183,3.183,0,0,1-1.356,2.468,19.218,19.218,0,0,1-6.053,4.3A18.582,18.582,0,0,1,589.493,103.394Z" transform="translate(-311.379 -33.165)"/><path class="a" d="M688.878,103.394a22.2,22.2,0,0,1-11.151-2.712,19.311,19.311,0,0,1-7.449-7.449A21.882,21.882,0,0,1,667.61,82.28a23.808,23.808,0,0,1,2.748-11.825,19.478,19.478,0,0,1,7.169-7.49,18.262,18.262,0,0,1,9.357-2.586,19.076,19.076,0,0,1,7.128,1.356,18.229,18.229,0,0,1,6.052,3.982,20.04,20.04,0,0,1,4.263,6.215A20.708,20.708,0,0,1,706,80.07a2.943,2.943,0,0,1-1.035,2.111,3.286,3.286,0,0,1-2.229.836H671.271l-1.433-5.5H700.5l-1.275,1.116V76.87a10.419,10.419,0,0,0-2.188-5.614,12.955,12.955,0,0,0-10.157-4.9,13.482,13.482,0,0,0-4.737.877,11.948,11.948,0,0,0-4.222,2.712,13.036,13.036,0,0,0-2.988,4.778,20.037,20.037,0,0,0-1.117,7.092,16.992,16.992,0,0,0,1.871,8.136,14.155,14.155,0,0,0,5.2,5.515,16.187,16.187,0,0,0,12.621,1.311,14.179,14.179,0,0,0,3.548-1.808,16.615,16.615,0,0,0,2.549-2.192,3.526,3.526,0,0,1,1.989-.714,2.712,2.712,0,0,1,1.993.8,2.621,2.621,0,0,1,.8,1.912,3.183,3.183,0,0,1-1.356,2.468,19.222,19.222,0,0,1-6.052,4.3A18.574,18.574,0,0,1,688.878,103.394Z" transform="translate(-365.838 -33.165)"/><path class="a" d="M768.089,61.065a3.517,3.517,0,0,1,1.84.52,2.989,2.989,0,0,1,1.275,1.551l13.221,30.986-1.275.637,13.38-31.641a2.951,2.951,0,0,1,3.028-2.07,2.983,2.983,0,0,1,2.07.8,2.681,2.681,0,0,1,.877,2.07,2.951,2.951,0,0,1-.122.877c-.077.267-.172.533-.276.8l-15.369,35.289a3.065,3.065,0,0,1-2.789,2.07,2.839,2.839,0,0,1-1.953-.4,3.518,3.518,0,0,1-1.392-1.672L765.237,65.585c-.054-.158-.118-.384-.2-.674a3.612,3.612,0,0,1-.117-.9,3.069,3.069,0,0,1,3.164-2.947Z" transform="translate(-419.162 -33.529)"/><path class="a" d="M61.88,12.692c-30.05-5.921-42.1,18.619-42.1,18.619s-2.549,6.473,1.546.57c0,0,11.752-23.835,40.555-17.023C61.88,14.848,70.98,14.482,61.88,12.692Z" transform="translate(-10.409 -6.528)"/><path class="a" d="M57,1.093C26.94-4.824,14.889,19.7,14.889,19.7s-2.549,6.477,1.546.574c0,0,11.752-23.839,40.555-17.028C57,3.259,66.072,2.883,57,1.093Z" transform="translate(-7.73 -0.172)"/><path class="a" d="M43.459,43.615a22.684,22.684,0,0,1,9.623-7.264c.5-.212,1-.411,1.505-.592.063-.095.14-.194.221-.3,2.459-3.087.985-6.473-.032-8.136a28.879,28.879,0,0,0-16.851,10.7A32.821,32.821,0,0,0,35.54,41.64C38.2,44.379,42.112,43.9,43.459,43.615Z" transform="translate(-19.475 -15.049)"/><path class="a" d="M111.1,136.06a30.446,30.446,0,0,1-14.79,4.633,30.074,30.074,0,0,1-6.215-.19,6.907,6.907,0,0,0-1.32,3.752,28.633,28.633,0,0,0,22.325-8.2" transform="translate(-48.644 -74.636)"/><path class="a" d="M116.392,37.02A29.462,29.462,0,0,0,93.7,25.72c-1.415,3.114-.095,6.1.9,7.684a22.149,22.149,0,0,1,11.513,3.616c3.123,1.971,3.553,4.972,1.487,8.032-.154.231-.312.452-.452.669a4.492,4.492,0,0,1-.054.936,7.626,7.626,0,0,0,3.164,7.205,43.2,43.2,0,0,0,5.709-5.18C119.56,44.723,119.651,41.242,116.392,37.02Z" transform="translate(-51.007 -14.172)"/><path class="a" d="M36.151,86.955a24.531,24.531,0,0,1-.574-10.048c-1.763-3.4-5.365-3.521-7.278-3.313a28.382,28.382,0,0,0-.2,13.561C31.238,89.057,34.483,87.85,36.151,86.955Z" transform="translate(-15.001 -40.371)"/><path class="a" d="M0,101.83a49.319,49.319,0,0,0,2.111,9.3,9.534,9.534,0,0,0,3.471,3.458,7.485,7.485,0,0,0,2.861.877,23.107,23.107,0,0,0,8.516-.714,2.43,2.43,0,0,1,2.8.927,28.8,28.8,0,0,0,13.886,8.783,7.345,7.345,0,0,0,1.98-4.253,24.206,24.206,0,0,1-8.914-6.419c-1.356-1.528-1.356-1.573.561-2.26,2.581-.963,5.148-1.944,7.684-2.974a7.411,7.411,0,0,0-3.255-4.932,153.324,153.324,0,0,1-16.481,6.242,14.89,14.89,0,0,1-5.921.827c-1.736-.163-2.775-.353-4.95-2.346a19.328,19.328,0,0,1-4.2-6.518" transform="translate(0 -55.879)"/><path class="a" d="M95.748,83.28l-.4.276a110.128,110.128,0,0,1-11.54,6.893,8.207,8.207,0,0,0,3.377,5.23c3.114-1.406,6.175-2.92,9.162-4.6.9-.515,1.808-1.04,2.712-1.582C99.364,86.408,97.226,84.333,95.748,83.28Z" transform="translate(-45.926 -45.714)"/></g></svg>