<svg xmlns="http://www.w3.org/2000/svg" width="14.263" height="28.235" viewBox="0 0 14.263 28.235"><defs><style>.a{fill:#385c8e;}</style></defs><path class="a" d="M127.137,15.038h3.1V27.78a.455.455,0,0,0,.455.455h5.248a.455.455,0,0,0,.455-.455V15.1h3.558a.456.456,0,0,0,.452-.4l.54-4.691a.455.455,0,0,0-.452-.508h-4.1V6.556c0-.886.477-1.336,1.419-1.336h2.68a.455.455,0,0,0,.455-.455V.459A.455.455,0,0,0,140.49,0H136.8c-.026,0-.084,0-.169,0A7.077,7.077,0,0,0,132,1.744a4.852,4.852,0,0,0-1.614,4.313V9.5h-3.249a.455.455,0,0,0-.455.455v4.631A.455.455,0,0,0,127.137,15.038Z" transform="translate(-126.682)"/></svg>