<svg xmlns="http://www.w3.org/2000/svg" width="212.567" height="38.949" viewBox="0 0 212.567 38.949"><defs><style>.a{fill:#29abe2;}</style></defs><g transform="translate(0 0)"><path class="a" d="M166.553,61.615a1.724,1.724,0,0,1,1.414.752l15.372,19.611a1.787,1.787,0,0,1,.351,1.06,1.755,1.755,0,0,1-.529,1.281,1.7,1.7,0,0,1-1.236.531,1.81,1.81,0,0,1-1.459-.8L165.1,64.484a1.524,1.524,0,0,1-.4-1.06,1.689,1.689,0,0,1,.554-1.3A1.857,1.857,0,0,1,166.553,61.615Zm0,23.187a1.892,1.892,0,0,1-1.148-.441,1.381,1.381,0,0,1-.574-1.148,1.815,1.815,0,0,1,.4-1.105l7.244-9.144,1.9,2.918-6.4,8.214A1.679,1.679,0,0,1,166.553,84.8ZM181.88,61.615a1.659,1.659,0,0,1,1.253.486,1.549,1.549,0,0,1,.464,1.1,1.657,1.657,0,0,1-.11.6,1.888,1.888,0,0,1-.331.551l-7.2,9.231L174.1,70.888l6.359-8.479A1.8,1.8,0,0,1,181.88,61.615Z" transform="translate(-123.416 -46.213)"/><path class="a" d="M262.79,60.387a15.709,15.709,0,0,1,4.063.484,7.933,7.933,0,0,1,2.872,1.326,2.408,2.408,0,0,1,1.06,1.9,1.948,1.948,0,0,1-.376,1.148,1.253,1.253,0,0,1-1.083.529,1.785,1.785,0,0,1-1-.251,4.218,4.218,0,0,1-.707-.574,3.864,3.864,0,0,0-.907-.639,6.268,6.268,0,0,0-1.544-.464,10.565,10.565,0,0,0-2.033-.2,7.873,7.873,0,0,0-4.228,1.155,7.986,7.986,0,0,0-2.895,3.09,9.236,9.236,0,0,0-1.038,4.429,9.359,9.359,0,0,0,1.018,4.416,7.93,7.93,0,0,0,2.825,3.083,7.657,7.657,0,0,0,4.2,1.148,9.024,9.024,0,0,0,2.429-.266,6.935,6.935,0,0,0,1.546-.612,5.085,5.085,0,0,0,1.216-.885,1.479,1.479,0,0,1,1.125-.441,1.454,1.454,0,0,1,1.193.486,1.817,1.817,0,0,1,.4,1.193,2.372,2.372,0,0,1-1.1,1.722,9.257,9.257,0,0,1-2.98,1.479,14.051,14.051,0,0,1-4.261.6,10.881,10.881,0,0,1-5.875-1.569,10.65,10.65,0,0,1-3.9-4.289,13.124,13.124,0,0,1-1.4-6.063,12.668,12.668,0,0,1,1.436-6.051,10.918,10.918,0,0,1,9.958-5.883Z" transform="translate(-188.383 -45.293)"/><path class="a" d="M352.633,54.248a1.81,1.81,0,0,1-1.81,1.812,1.667,1.667,0,0,1-1.253-.531,1.775,1.775,0,0,1-.5-1.281V25.188a1.8,1.8,0,0,1,1.81-1.812,1.659,1.659,0,0,1,1.281.529,1.825,1.825,0,0,1,.486,1.283Z" transform="translate(-261.575 -17.559)"/><path class="a" d="M406.773,62.671a1.694,1.694,0,0,1,1.281.5,1.817,1.817,0,0,1,.494,1.308V76.495a9.228,9.228,0,0,1-2.506,6.913,11.033,11.033,0,0,1-13.868,0,9.281,9.281,0,0,1-2.506-6.913V64.481a1.772,1.772,0,0,1,.5-1.3,1.707,1.707,0,0,1,1.253-.5,1.687,1.687,0,0,1,1.281.5,1.807,1.807,0,0,1,.486,1.3V76.495a6.157,6.157,0,0,0,1.547,4.549,6.891,6.891,0,0,0,8.7,0,6.154,6.154,0,0,0,1.547-4.549V64.481a1.807,1.807,0,0,1,.486-1.3A1.687,1.687,0,0,1,406.773,62.671Z" transform="translate(-291.997 -47.004)"/><path class="a" d="M501.037,81.847a1.654,1.654,0,0,1,1.193.464,1.551,1.551,0,0,1,.486,1.171,1.572,1.572,0,0,1-.486,1.148,1.624,1.624,0,0,1-1.193.486H486.727a1.692,1.692,0,0,1-1.679-1.634,2.2,2.2,0,0,1,.113-.752,2.672,2.672,0,0,1,.419-.707L498.167,64.93l.088.486H487.567a1.624,1.624,0,0,1-1.193-.486,1.572,1.572,0,0,1-.486-1.148,1.551,1.551,0,0,1,.486-1.171,1.654,1.654,0,0,1,1.193-.464h13.56a1.521,1.521,0,0,1,1.171.5,1.809,1.809,0,0,1,.464,1.253,4.916,4.916,0,0,1-.133.617,2.128,2.128,0,0,1-.353.664l-12.5,16.871-.308-.221Z" transform="translate(-363.472 -46.614)"/><path class="a" d="M580.02,84.231a12.313,12.313,0,0,1-6.183-1.5,10.7,10.7,0,0,1-4.128-4.131,12.134,12.134,0,0,1-1.479-6.073,13.22,13.22,0,0,1,1.521-6.557,10.818,10.818,0,0,1,3.975-4.153,10.129,10.129,0,0,1,5.191-1.434,10.577,10.577,0,0,1,3.953.752,10.133,10.133,0,0,1,3.349,2.208,11.108,11.108,0,0,1,2.364,3.446,11.481,11.481,0,0,1,.927,4.512,1.632,1.632,0,0,1-.574,1.171,1.828,1.828,0,0,1-1.238.464H570.253l-.795-3.048H586.47l-.707.619v-.98a5.8,5.8,0,0,0-1.213-3.113,7.184,7.184,0,0,0-5.632-2.717,7.492,7.492,0,0,0-2.629.486,6.648,6.648,0,0,0-2.341,1.5,7.223,7.223,0,0,0-1.654,2.649,11.107,11.107,0,0,0-.612,3.93,9.421,9.421,0,0,0,1.038,4.512,7.857,7.857,0,0,0,2.885,3.06,8.983,8.983,0,0,0,7,.727,7.8,7.8,0,0,0,1.965-1,9.21,9.21,0,0,0,1.414-1.216,1.968,1.968,0,0,1,1.105-.4,1.5,1.5,0,0,1,1.1.441,1.446,1.446,0,0,1,.444,1.06,1.765,1.765,0,0,1-.752,1.369,10.656,10.656,0,0,1-3.356,2.386A10.3,10.3,0,0,1,580.02,84.231Z" transform="translate(-425.805 -45.289)"/><path class="a" d="M679.4,84.231a12.312,12.312,0,0,1-6.183-1.5,10.708,10.708,0,0,1-4.131-4.131,12.134,12.134,0,0,1-1.479-6.073,13.2,13.2,0,0,1,1.524-6.557,10.8,10.8,0,0,1,3.975-4.153A10.126,10.126,0,0,1,678.3,60.38a10.578,10.578,0,0,1,3.953.752,10.109,10.109,0,0,1,3.356,2.208,11.112,11.112,0,0,1,2.364,3.446A11.484,11.484,0,0,1,688.9,71.3a1.632,1.632,0,0,1-.574,1.171,1.822,1.822,0,0,1-1.236.464H669.64l-.795-3.048h17l-.707.619v-.98a5.777,5.777,0,0,0-1.213-3.113,7.184,7.184,0,0,0-5.632-2.717,7.476,7.476,0,0,0-2.627.486,6.625,6.625,0,0,0-2.341,1.5,7.229,7.229,0,0,0-1.657,2.649,11.108,11.108,0,0,0-.619,3.933,9.421,9.421,0,0,0,1.038,4.512,7.848,7.848,0,0,0,2.885,3.058,8.976,8.976,0,0,0,7,.727,7.863,7.863,0,0,0,1.968-1,9.218,9.218,0,0,0,1.414-1.216,1.955,1.955,0,0,1,1.1-.4,1.5,1.5,0,0,1,1.105.441,1.454,1.454,0,0,1,.441,1.06,1.765,1.765,0,0,1-.752,1.369A10.658,10.658,0,0,1,683.9,83.2,10.3,10.3,0,0,1,679.4,84.231Z" transform="translate(-500.276 -45.289)"/><path class="a" d="M766.677,61.056a1.95,1.95,0,0,1,1.02.288,1.657,1.657,0,0,1,.707.86l7.331,17.182-.707.353,7.419-17.545a1.636,1.636,0,0,1,1.679-1.148,1.654,1.654,0,0,1,1.148.441,1.486,1.486,0,0,1,.486,1.148,1.641,1.641,0,0,1-.068.486c-.043.148-.1.3-.153.441L777.019,83.13a1.7,1.7,0,0,1-1.547,1.148,1.574,1.574,0,0,1-1.083-.221,1.95,1.95,0,0,1-.772-.927L765.1,63.562c-.03-.088-.065-.213-.11-.373a2,2,0,0,1-.065-.5,1.7,1.7,0,0,1,1.755-1.634Z" transform="translate(-573.195 -45.787)"/><path class="a" d="M42.775,12.282C26.112,9,19.43,22.606,19.43,22.606s-1.414,3.589.857.316c0,0,6.517-13.217,22.488-9.439C42.775,13.477,47.821,13.274,42.775,12.282Z" transform="translate(-14.234 -8.863)"/><path class="a" d="M37.89.683C21.222-2.6,14.54,11,14.54,11s-1.414,3.592.857.318c0,0,6.517-13.219,22.488-9.442C37.89,1.884,42.921,1.676,37.89.683Z" transform="translate(-10.57 -0.172)"/><path class="a" d="M39.931,36.356a12.578,12.578,0,0,1,5.336-4.028c.278-.118.556-.228.835-.328.035-.053.078-.108.123-.168a3.828,3.828,0,0,0-.018-4.512,16.014,16.014,0,0,0-9.344,5.935A18.2,18.2,0,0,0,35.54,35.26,4.837,4.837,0,0,0,39.931,36.356Z" transform="translate(-26.632 -20.516)"/><path class="a" d="M101.149,136.06a16.882,16.882,0,0,1-8.2,2.569,16.677,16.677,0,0,1-3.446-.105,3.83,3.83,0,0,0-.732,2.08,15.877,15.877,0,0,0,12.379-4.544" transform="translate(-66.52 -102)"/><path class="a" d="M106.007,31.986A16.337,16.337,0,0,0,93.425,25.72a4.508,4.508,0,0,0,.5,4.261,12.282,12.282,0,0,1,6.384,2.005c1.732,1.093,1.97,2.757.825,4.454-.085.128-.173.251-.251.371a2.491,2.491,0,0,1-.03.519,4.229,4.229,0,0,0,1.755,4,23.954,23.954,0,0,0,3.166-2.872C107.764,36.257,107.814,34.327,106.007,31.986Z" transform="translate(-69.751 -19.317)"/><path class="a" d="M32.241,80.974a13.6,13.6,0,0,1-.318-5.572,3.83,3.83,0,0,0-4.035-1.837,15.738,15.738,0,0,0-.11,7.519A4.463,4.463,0,0,0,32.241,80.974Z" transform="translate(-20.514 -55.143)"/><path class="a" d="M0,101.83a27.348,27.348,0,0,0,1.171,5.158A5.287,5.287,0,0,0,3.1,108.906a4.151,4.151,0,0,0,1.587.486A12.813,12.813,0,0,0,9.4,109a1.347,1.347,0,0,1,1.554.514,15.969,15.969,0,0,0,7.7,4.87,4.073,4.073,0,0,0,1.1-2.359,13.422,13.422,0,0,1-4.943-3.559c-.752-.847-.752-.872.311-1.253,1.431-.534,2.855-1.078,4.261-1.649a4.109,4.109,0,0,0-1.8-2.735,85.019,85.019,0,0,1-9.139,3.461,8.257,8.257,0,0,1-3.283.459,3.843,3.843,0,0,1-2.745-1.3A10.718,10.718,0,0,1,.083,101.83" transform="translate(0 -76.35)"/><path class="a" d="M90.43,83.28l-.221.153a61.068,61.068,0,0,1-6.4,3.822,4.551,4.551,0,0,0,1.872,2.9c1.727-.78,3.424-1.619,5.081-2.549.5-.286,1-.576,1.5-.877A3.858,3.858,0,0,0,90.43,83.28Z" transform="translate(-62.803 -62.449)"/></g></svg>